<svg width="1820" height="388" viewBox="0 0 1820 388" fill="none" xmlns="http://www.w3.org/2000/svg">
<path d="M387.265 265.318L121.95 387.268L38.8403 206.454L84.5011 83.1128L265.315 0.00295842L387.265 265.318ZM154.846 298.41L298.407 232.423L232.42 88.8618L88.8588 154.849L154.846 298.41Z" fill="#9F0E1F"/>
<path d="M0.910156 121.535L65.4217 91.8829L30.3536 185.592L0.910156 121.535Z" fill="#9F0E1F"/>
<path d="M614.525 197.624V250.949H585.95V197.849C585.95 180.749 580.325 164.999 560.3 164.999C554.225 164.999 547.7 165.224 542.075 167.924C544.1 175.124 545.9 182.324 545.9 189.749V250.949H517.775V197.849C517.775 181.649 512.375 164.999 493.25 164.999C487.85 164.999 482.9 165.674 477.725 166.799V250.949H449.6V147.224C464.675 144.074 479.975 141.149 495.275 141.149C505.4 141.149 515.75 143.174 524.75 147.674C537.125 143.399 550.175 141.149 563.225 141.149C600.125 141.149 614.525 163.199 614.525 197.624ZM743.185 196.049C743.185 234.299 726.985 253.874 687.61 253.874C650.485 253.874 635.185 231.374 635.185 196.274C635.185 160.049 653.86 141.374 690.085 141.374C725.41 141.374 743.185 161.399 743.185 196.049ZM714.61 197.399C714.61 180.974 707.86 165.674 688.96 165.674C670.285 165.674 663.535 180.974 663.535 197.399C663.535 214.049 670.285 229.349 688.96 229.349C707.86 229.349 714.61 214.049 714.61 197.399ZM861.427 248.024C847.252 250.274 833.077 252.974 818.677 252.974C783.127 252.974 760.852 231.599 760.852 195.824C760.852 168.149 774.802 141.599 805.852 141.599C816.427 141.599 825.202 144.749 833.077 152.399V78.8242H861.427V248.024ZM832.852 227.774V192.449C832.852 179.624 824.752 164.999 810.352 164.999C793.927 164.999 788.527 181.199 788.527 195.149C788.527 214.274 797.302 229.124 818.002 229.124C822.952 229.124 827.677 228.449 832.852 227.774ZM982.491 247.574C967.641 250.949 952.791 253.649 937.266 253.649C900.591 253.649 885.741 232.274 885.966 197.624V143.849H914.091V196.724C914.091 213.149 919.491 229.799 939.066 229.799C944.016 229.799 949.191 229.124 954.366 228.224V143.849H982.491V247.574ZM1079.93 220.799C1079.93 243.524 1056.08 253.649 1036.73 253.649C1025.93 253.649 1015.58 250.949 1005.45 247.574V220.799C1015.58 226.199 1026.15 231.599 1037.63 231.599C1042.35 231.599 1048.43 229.574 1048.43 223.949C1048.43 205.724 1004.55 203.699 1004.55 172.199C1004.55 149.474 1023.9 140.924 1043.93 140.924C1054.95 140.924 1064.85 142.724 1074.98 147.224V171.749C1064.85 167.249 1054.05 162.974 1042.8 162.974C1038.98 162.974 1033.35 164.099 1033.35 169.049C1033.35 181.874 1079.93 189.524 1079.93 220.799ZM1221.78 108.299C1212.33 103.349 1204.68 100.199 1194.1 100.199C1182.85 100.199 1181.5 109.424 1181.5 118.424V143.849H1216.38V168.374H1181.5V250.949H1153.6V122.924C1153.6 93.2242 1158.78 76.1242 1192.3 76.1242C1202.43 76.1242 1212.33 78.8242 1221.78 82.1992V108.299ZM1224.92 220.799C1224.92 191.324 1251.47 184.349 1275.77 182.549C1279.6 182.324 1283.42 182.099 1286.8 182.099V176.699C1286.8 164.999 1277.12 164.099 1267.9 164.099C1253.05 164.099 1242.25 167.924 1228.75 173.324V146.999C1242.25 142.274 1256.87 140.474 1271.27 140.474C1283.42 140.474 1296.25 142.724 1305.7 150.824C1314.7 158.924 1315.15 168.599 1315.15 180.074V248.024C1298.95 250.724 1282.52 253.874 1265.87 253.874C1245.62 253.874 1224.92 243.749 1224.92 220.799ZM1286.8 228.449V204.599H1281.62C1270.82 204.599 1252.6 206.624 1252.6 220.799C1252.6 229.574 1264.3 230.924 1271.05 230.924C1276.22 230.924 1281.62 229.799 1286.8 228.449ZM1424.54 248.249C1414.19 251.174 1403.84 253.874 1393.04 253.874C1358.61 253.874 1336.34 231.149 1336.34 196.949C1336.34 164.099 1355.69 141.149 1389.66 141.149C1400.91 141.149 1411.71 143.849 1422.51 146.774V171.749C1412.84 168.374 1403.16 165.449 1393.04 165.449C1374.36 165.449 1365.59 179.849 1365.59 196.724C1365.59 213.599 1377.29 229.574 1395.29 229.574C1405.64 229.574 1414.86 226.874 1424.54 223.499V248.249ZM1509.18 248.474C1499.73 252.299 1490.05 254.549 1479.7 254.549C1446.4 254.549 1441 236.324 1441 206.624V111.899H1469.13V143.849H1504V168.149H1469.13V210.449C1469.13 219.449 1469.58 230.474 1481.28 230.474C1491.18 230.474 1500.4 226.649 1509.18 222.599V248.474ZM1617.72 247.574C1602.87 250.949 1588.02 253.649 1572.5 253.649C1535.82 253.649 1520.97 232.274 1521.2 197.624V143.849H1549.32V196.724C1549.32 213.149 1554.72 229.799 1574.3 229.799C1579.25 229.799 1584.42 229.124 1589.6 228.224V143.849H1617.72V247.574ZM1808.08 197.624V250.949H1779.5V197.849C1779.5 180.749 1773.88 164.999 1753.85 164.999C1747.78 164.999 1741.25 165.224 1735.63 167.924C1737.65 175.124 1739.45 182.324 1739.45 189.749V250.949H1711.33V197.849C1711.33 181.649 1705.93 164.999 1686.8 164.999C1681.4 164.999 1676.45 165.674 1671.28 166.799V250.949H1643.15V147.224C1658.23 144.074 1673.53 141.149 1688.83 141.149C1698.95 141.149 1709.3 143.174 1718.3 147.674C1730.68 143.399 1743.73 141.149 1756.78 141.149C1793.68 141.149 1808.08 163.199 1808.08 197.624Z" fill="#9F0E1F"/>
</svg>
